<?xml version="1.0" encoding="UTF-8"?>
<svg id="Layer_1" xmlns="http://www.w3.org/2000/svg" viewBox="0 0 151.7 200">
<defs>
<style>.cls-1{fill:#001e5f;}</style>
</defs>
<polygon class="cls-1" points="19.11 23.52 19.2 23.52 23.89 34.2 26.22 34.2 30.91 23.52 30.99 23.52 30.99 34.2 34.24 34.2 34.24 17.61 30.26 17.61 25.07 29.27 25.03 29.27 19.85 17.61 15.86 17.61 15.86 34.2 19.11 34.2 19.11 23.52"/>
<polygon class="cls-1" points="52.25 31.27 44.26 31.27 44.26 27.31 51.6 27.31 51.6 24.25 44.26 24.25 44.26 20.52 52.03 20.52 52.03 17.61 41.06 17.61 41.06 34.2 52.25 34.2 52.25 31.27"/>
<polygon class="cls-1" points="68.93 31.27 61.55 31.27 61.55 17.61 58.34 17.61 58.34 34.2 68.93 34.2 68.93 31.27"/>
<rect class="cls-1" x="74.21" y="17.61" width="3.21" height="16.59"/>
<path class="cls-1" d="M87.62,33.46c1.29.74,2.72,1.11,4.28,1.11s2.99-.37,4.28-1.12c1.29-.74,2.31-1.77,3.07-3.08.75-1.31,1.13-2.79,1.13-4.44s-.38-3.13-1.13-4.45c-.75-1.32-1.78-2.35-3.07-3.09-1.29-.75-2.72-1.12-4.28-1.12s-2.99.37-4.28,1.11c-1.29.74-2.32,1.77-3.08,3.08-.76,1.32-1.14,2.81-1.14,4.47s.38,3.14,1.14,4.46c.76,1.31,1.78,2.34,3.08,3.07ZM87.44,23.01c.46-.86,1.08-1.54,1.86-2.03.78-.49,1.65-.73,2.62-.73s1.83.25,2.6.76c.77.5,1.38,1.19,1.83,2.05.44.87.67,1.82.67,2.87s-.23,2.05-.68,2.9c-.45.86-1.07,1.53-1.84,2.02-.77.49-1.63.73-2.58.73s-1.82-.24-2.6-.72c-.79-.48-1.41-1.15-1.87-2.01-.46-.86-.69-1.83-.69-2.93s.23-2.05.69-2.91Z"/>
<path class="cls-1" d="M108.6,28.27h1.94l3.96,5.94h3.62s-3.48-5.12-4.2-6.17v-.02c.7-.18,1.33-.48,1.89-.88.56-.4,1.02-.95,1.37-1.65.35-.7.53-1.54.53-2.53,0-1.47-.37-2.61-1.11-3.4-.74-.8-1.54-1.32-2.39-1.56-.85-.25-1.63-.37-2.34-.37h-6.48v16.59h3.21v-5.94ZM108.6,20.48h2.73c.76,0,1.45.2,2.08.6.62.4.94,1.04.94,1.94,0,.62-.16,1.12-.48,1.48-.32.36-.71.61-1.15.76s-.92.21-1.42.21h-2.69v-4.98Z"/>
<path class="cls-1" d="M126.95,29.82h6.32l1.65,4.28h3.37l-6.28-16.35h-3.69l-6.28,16.35h3.27l1.63-4.28ZM130.11,21.49h.04l1.99,5.3h-4.07l2.04-5.3Z"/>
<path class="cls-1" d="M151.7,115.87V0H0v115.87c.03,1.52-.77,15.7,11.06,29.7,8.54,10.11,61.49,50.17,63.73,51.88l1.05.8,1.05-.8c2.24-1.71,55.08-41.87,63.73-51.88,11.68-13.52,11.08-28.24,11.07-29.7ZM148.25,3.41v44.27H3.45V3.41h144.8ZM13.68,143.33c-11.05-13.22-10.07-26.28-10.23-27.19V51.1h70.68v53.29l-55.39,43.85c-2.26-2.03-4.04-3.68-5.06-4.91ZM75.85,193.94c-6.25-4.78-38.63-29.62-54.5-43.4l54.5-43.15,54.5,43.15c-15.87,13.78-48.25,38.62-54.5,43.4ZM138.03,143.33c-1.08,1.17-2.8,2.88-5.06,4.91l-55.39-43.85v-53.29h70.67v64.85s.44,15.81-10.22,27.38Z"/>
<path class="cls-1" d="M36.84,102.46v.34h3.79v-.34c.26-.63,1.25-2.6,3.56-2.6h15.25v-31.6h-15.56c-1.66,0-3.69.67-5.14,1.86-1.45-1.19-3.48-1.86-5.14-1.86h-15.56v31.6h15.25c2.31,0,3.3,1.97,3.56,2.6ZM43.87,71.67h11.77v24.76h-11.46c-1.4,0-2.58.34-3.56.86v-23.56c0-1.19,2.14-2.06,3.25-2.06ZM21.81,71.67h11.77c1.11,0,3.25.87,3.25,2.06v23.56c-.98-.52-2.16-.86-3.56-.86h-11.46v-24.76Z"/>
<path class="cls-1" d="M125.67,66.91c-2.38,0-4.04,1.68-4.04,4.1,0,.64.02,1.6.05,2.25h-1v-2.31h-2.93v2.31h-1.91v-2.31h-2.93v2.31h-1.91v-2.31h-2.93v2.31h-1.07c.03-.65.05-1.61.05-2.25,0-2.41-1.66-4.1-4.05-4.1s-4.04,1.68-4.04,4.1h2.93c0-.72.5-1.3,1.12-1.3s1.12.58,1.12,1.3c0,4.71-1.19,7.89-2.35,10.95-1.05,2.79-2.04,5.42-2.04,8.84,0,1.88.43,3.71,1.27,5.43.78,1.6,1.89,3.05,3.28,4.29.22.19.45.39.69.57h-3.05l.04,3.04h24.74l-.04-3.04h-2.98c.24-.19.47-.38.69-.57,1.4-1.24,2.5-2.69,3.28-4.29.84-1.73,1.27-3.56,1.27-5.43,0-3.39-.98-5.94-2.01-8.65-1.17-3.05-2.38-6.2-2.38-11.15,0-.72.5-1.3,1.12-1.3s1.12.58,1.12,1.3h2.93c0-2.41-1.66-4.1-4.05-4.1ZM108.07,99.38c-3.34-1.96-5.4-5.22-5.4-8.58,0-2.76.84-4.99,1.81-7.57.77-2.03,1.63-4.34,2.13-7.13h1.45v23.28ZM111,100.63v-24.53h1.91v24.92c-.64-.08-1.29-.21-1.91-.38ZM115.84,101.01v-24.91h1.91v24.51c-.63.18-1.27.31-1.91.39ZM122.05,76.1c.51,2.95,1.4,5.29,2.19,7.35.95,2.49,1.78,4.63,1.78,7.35,0,3.32-2.04,6.57-5.34,8.54v-23.24h1.37Z"/>
<path class="cls-1" d="M80.66,136.6c.95.95,2.96,1.7,5.34,1.86,3.38.23,6.21-.81,6.31-2.33.1-1.46-2.38-2.83-5.59-3.13-.17-.04-.34-.07-.53-.06-.08,0-.16,0-.24.01-.72-.03-1.4,0-2.04.08-.29.01-.58.02-.88.03-1.79.07-3.67.14-5.53.25v-4.29l1.26-2.97s-1.47-2.07-2.88-2.07-3.1,2.07-3.1,2.07l1.26,2.97v4.56c-6.99.71-13.03,2.47-13.06,7.61-.03,4.7,5.8,5.84,13.06,5.99v4.42c-5.7.33-8.94,2.51-9.03,6.14-.09,3.63,4.62,4.76,9.03,5.05v5.87c-2.1.41-3.65.58-3.69.58-.95.09-1.65.92-1.56,1.86.09.88,1.18,1.14,2.06,1.14.36,0,1.54-.1,3.19-.4v6.1l1.84,1.54,1.62-1.54v-6.89c.81-.22,1.65-.48,2.51-.78,2.79-.98,4.6-3.31,4.37-5.75-.21-2.22-2.71-4.23-6.88-4.89v-4.75c6.75-.44,10.79-2.63,10.79-6.4s-6.79-4.55-10.79-4.67v-7.02c1.08-.08,2.15-.15,3.17-.2ZM68.57,157.24c.04-1.45,3.11-2.01,5.46-2.2v4.29c-4.68-.39-5.49-1.14-5.46-2.1ZM81.07,164.99c.18.96-1.07,2.07-2.29,2.47-.43.14-.86.27-1.29.39v-4.83c2.24.33,3.43,1.2,3.58,1.98ZM83.92,147.98c.59.5,1.06,1.42-.33,2.21-1.39.78-3.69,1.22-6.09,1.34v-4.33c2.36-.02,5.51,0,6.43.79ZM74.03,143.78c-8.14-.16-9.75-1.94-9.7-3.07.08-1.94,4.61-3,9.7-3.59v6.66Z"/>
</svg>
